<svg version="1.1" xmlns="http://www.w3.org/2000/svg" xmlns:xlink="http://www.w3.org/1999/xlink" width="24.000000" height="24.000000" viewBox="0,0,256,256"><defs><clipPath id="clip-1"><rect x="0" y="0" width="24" height="24" id="clipPath_0" fill="none" fill-rule="nonzero"></rect></clipPath></defs><g fill="none" fill-rule="none" stroke="none" stroke-width="1" stroke-linecap="butt" stroke-linejoin="miter" stroke-miterlimit="10" stroke-dasharray="" stroke-dashoffset="0" font-family="none" font-weight="none" font-size="none" text-anchor="none" style="mix-blend-mode: normal"><g transform="scale(10.66667,10.66667)"><rect x="0" y="0" width="24" height="24" id="icon-grid" fill-opacity="0" fill="#ffffff" fill-rule="nonzero"></rect><g clip-path="url(#clip-1)" id="icon-grid"><rect x="0" y="0" width="24" height="24" id="icon-grid" fill="none" fill-rule="nonzero"></rect><path d="M3,2c-0.55228,0 -1,0.44772 -1,1v7c0,0.5523 0.44772,1 1,1h7c0.5523,0 1,-0.4477 1,-1v-7c0,-0.55228 -0.4477,-1 -1,-1zM13,3c0,-0.55228 0.4477,-1 1,-1h7c0.5523,0 1,0.44772 1,1v7c0,0.5523 -0.4477,1 -1,1h-7c-0.5523,0 -1,-0.4477 -1,-1zM4,9v-5h5v5zM15,4v5h5v-5zM2,14c0,-0.5523 0.44772,-1 1,-1h7c0.5523,0 1,0.4477 1,1v7c0,0.5523 -0.4477,1 -1,1h-7c-0.55228,0 -1,-0.4477 -1,-1zM13,14c0,-0.5523 0.4477,-1 1,-1h7c0.5523,0 1,0.4477 1,1v7c0,0.5523 -0.4477,1 -1,1h-7c-0.5523,0 -1,-0.4477 -1,-1zM4,15v5h5v-5zM15,15v5h5v-5z" id="Shape" fill="#ffffff" fill-rule="evenodd"></path></g></g></g></svg>