<svg viewBox="0 0 24 24" xmlns="http://www.w3.org/2000/svg" xmlns:xlink="http://www.w3.org/1999/xlink" width="24.000000" height="24.000000" fill="none" customFrame="#000000">
	<defs>
		<clipPath id="clipPath_5">
			<rect width="24.000000" height="24.000000" x="0.000000" y="0.000000" fill="rgb(255,255,255)" />
		</clipPath>
	</defs>
	<rect id="icon-mail" width="24.000000" height="24.000000" x="0.000000" y="0.000000" fill="rgb(255,255,255)" fill-opacity="0" />
	<g id="icon-mail" clip-path="url(#clipPath_5)" customFrame="url(#clipPath_5)">
		<rect id="icon-mail" width="24.000000" height="24.000000" x="0.000000" y="0.000000" />
		<path id="Shape" d="M1.00005 5.98266C0.999889 5.99253 0.999873 6.00239 1 6.01225L1 18C1 19.6523 2.34772 21 4 21L20 21C21.6523 21 23 19.6523 23 18L23 6.01236C23.0001 6.00242 23.0001 5.99247 23 5.98251C22.9905 4.33822 21.6465 3 20 3L4 3C2.3535 3 1.00944 4.33829 1.00005 5.98266ZM3.10658 5.55395C3.27196 5.22692 3.61204 5 4 5L20 5C20.388 5 20.728 5.22692 20.8934 5.55395L12 11.7793L3.10658 5.55395ZM21 7.92066L21 18C21 18.5477 20.5477 19 20 19L4 19C3.45229 19 3 18.5477 3 18L3 7.92066L11.4265 13.8192C11.7709 14.0603 12.2291 14.0603 12.5735 13.8192L21 7.92066Z" fill="rgb(255,255,255)" fill-rule="evenodd" />
	</g>
</svg>
