<svg viewBox="0 0 24 24" xmlns="http://www.w3.org/2000/svg" xmlns:xlink="http://www.w3.org/1999/xlink" width="24.000000" height="24.000000" fill="none">
	<rect id="icon-monitor" width="24.000000" height="24.000000" x="0.000000" y="0.000000" />
	<path id="Shape" d="M13 18L20 18C21.6569 18 23 16.6569 23 15L23 5C23 3.34315 21.6569 2 20 2L4 2C2.34315 2 1 3.34315 1 5L1 15C1 16.6569 2.34315 18 4 18L11 18L11 20L8 20C7.44772 20 7 20.4477 7 21C7 21.5523 7.44772 22 8 22L16 22C16.5523 22 17 21.5523 17 21C17 20.4477 16.5523 20 16 20L13 20L13 18ZM4 4C3.44772 4 3 4.44772 3 5L3 15C3 15.5523 3.44772 16 4 16L20 16C20.5523 16 21 15.5523 21 15L21 5C21 4.44772 20.5523 4 20 4L4 4Z" fill="rgb(45,54,72)" fill-rule="evenodd" />
</svg>
