<svg viewBox="0 0 24 24" xmlns="http://www.w3.org/2000/svg" xmlns:xlink="http://www.w3.org/1999/xlink" width="24.000000" height="24.000000" fill="none">
	<rect id="icon-mail" width="24.000000" height="24.000000" x="0.000000" y="0.000000" />
	<path id="Shape" d="M1.00014 5.98266C0.999973 5.99253 0.999957 6.00239 1.00009 6.01225L1.00009 18C1.00009 19.6523 2.3478 21 4.00009 21L20.0001 21C21.6524 21 23.0001 19.6523 23.0001 18L23.0001 6.01236C23.0002 6.00242 23.0002 5.99247 23 5.98251C22.9906 4.33822 21.6465 3 20.0001 3L4.00009 3C2.35359 3 1.00953 4.33829 1.00014 5.98266ZM3.10666 5.55395C3.27204 5.22692 3.61212 5 4.00009 5L20.0001 5C20.3881 5 20.7281 5.22692 20.8935 5.55395L12.0001 11.7793L3.10666 5.55395ZM21.0001 7.92066L21.0001 18C21.0001 18.5477 20.5478 19 20.0001 19L4.00009 19C3.45237 19 3.00009 18.5477 3.00009 18L3.00009 7.92066L11.4266 13.8192C11.7709 14.0603 12.2292 14.0603 12.5735 13.8192L21.0001 7.92066Z" fill="rgb(45,54,72)" fill-rule="evenodd" />
</svg>
