<svg viewBox="0 0 32 32" xmlns="http://www.w3.org/2000/svg" xmlns:xlink="http://www.w3.org/1999/xlink" width="32.000000" height="32.000000" fill="none" customFrame="url(#clipPath_6)">
	<defs>
		<clipPath id="clipPath_6">
			<rect width="32.000000" height="32.000000" x="0.000000" y="0.000000" rx="16.000000" fill="rgb(255,255,255)" />
		</clipPath>
		<clipPath id="clipPath_7">
			<rect width="16.000000" height="16.000000" x="8.000000" y="8.000000" fill="rgb(255,255,255)" />
		</clipPath>
	</defs>
	<rect id="Github" width="32.000000" height="32.000000" x="0.000000" y="0.000000" rx="16.000000" fill="rgb(151.818,249.807,235.686)" />
	<g id="github" clip-path="url(#clipPath_7)" customFrame="url(#clipPath_7)">
		<rect id="github" width="16.000000" height="16.000000" x="8.000000" y="8.000000" />
		<path id="Vector" d="M15.9999 9.49805C14.4169 9.49811 12.8856 10.0615 11.6799 11.0873C10.4742 12.1131 9.67294 13.5345 9.41936 15.097C9.16578 16.6596 9.47648 18.2614 10.2959 19.6159C11.1153 20.9703 12.3899 21.989 13.8916 22.4897C14.2249 22.5481 14.3499 22.3481 14.3499 22.173C14.3499 22.0147 14.3416 21.4897 14.3416 20.9314C12.6666 21.2397 12.2333 20.5231 12.0999 20.1481C11.952 19.7833 11.7175 19.4601 11.4166 19.2064C11.1833 19.0814 10.8499 18.773 11.4083 18.7647C11.6215 18.7879 11.8259 18.862 12.0044 18.981C12.1828 19.0999 12.3299 19.2601 12.4333 19.448C12.5245 19.6118 12.6471 19.756 12.7941 19.8724C12.9411 19.9887 13.1096 20.0749 13.29 20.126C13.4703 20.1771 13.659 20.1921 13.8452 20.1701C14.0314 20.1482 14.2114 20.0897 14.3749 19.998C14.4038 19.6591 14.5548 19.3422 14.7999 19.1064C13.3166 18.9397 11.7666 18.3647 11.7666 15.8147C11.7572 15.1522 12.0017 14.5111 12.4499 14.0231C12.2461 13.4472 12.27 12.8153 12.5166 12.2564C12.5166 12.2564 13.0749 12.0814 14.3499 12.9397C15.4408 12.6397 16.5924 12.6397 17.6833 12.9397C18.9583 12.0731 19.5166 12.2564 19.5166 12.2564C19.7633 12.8152 19.7871 13.4472 19.5833 14.0231C20.0328 14.5103 20.2775 15.1519 20.2666 15.8147C20.2666 18.373 18.7083 18.9397 17.2249 19.1064C17.384 19.2677 17.5066 19.4613 17.5842 19.6741C17.6619 19.8869 17.6928 20.1139 17.6749 20.3397C17.6749 21.2314 17.6666 21.9481 17.6666 22.1731C17.6666 22.3481 17.7916 22.5564 18.1249 22.4897C19.624 21.985 20.895 20.9639 21.7109 19.6087C22.5268 18.2536 22.8345 16.6526 22.5792 15.0915C22.3239 13.5305 21.5221 12.111 20.3169 11.0864C19.1118 10.0618 17.5817 9.49887 15.9999 9.49805Z" fill="rgb(41,47,54)" fill-rule="nonzero" />
	</g>
</svg>
