<svg viewBox="0 0 32 32" xmlns="http://www.w3.org/2000/svg" xmlns:xlink="http://www.w3.org/1999/xlink" width="32.000000" height="32.000000" fill="none" customFrame="url(#clipPath_1)">
	<defs>
		<clipPath id="clipPath_1">
			<rect width="32.000000" height="32.000000" x="0.000000" y="0.000000" rx="16.000000" fill="rgb(255,255,255)" />
		</clipPath>
		<clipPath id="clipPath_2">
			<rect width="16.000000" height="16.000000" x="8.000000" y="8.000000" fill="rgb(255,255,255)" />
		</clipPath>
		<clipPath id="clipPath_3">
			<rect width="16.000000" height="16.000000" x="8.000000" y="8.000000" fill="rgb(255,255,255)" />
		</clipPath>
	</defs>
	<rect id="Instagram" width="32.000000" height="32.000000" x="0.000000" y="0.000000" rx="16.000000" fill="rgb(151.818,249.807,235.686)" />
	<g id="icon-instagram" customFrame="url(#clipPath_2)">
		<rect id="icon-instagram" width="16.000000" height="16.000000" x="8.000000" y="8.000000" />
		<g id="icon-instagram" clip-path="url(#clipPath_3)" customFrame="url(#clipPath_3)">
			<rect id="icon-instagram" width="16.000000" height="16.000000" x="8.000000" y="8.000000" />
			<path id="Shape" d="M12.6666 8.6665C10.4575 8.6665 8.66663 10.4574 8.66663 12.6665L8.66663 19.3332C8.66663 21.5423 10.4575 23.3332 12.6666 23.3332L19.3333 23.3332C21.5424 23.3332 23.3333 21.5423 23.3333 19.3332L23.3333 12.6665C23.3333 10.4574 21.5424 8.6665 19.3333 8.6665L12.6666 8.6665ZM9.99996 12.6665C9.99996 11.1937 11.1939 9.99984 12.6666 9.99984L19.3333 9.99984C20.8061 9.99984 22 11.1937 22 12.6665L22 19.3332C22 20.8059 20.8061 21.9998 19.3333 21.9998L12.6666 21.9998C11.1939 21.9998 9.99996 20.8059 9.99996 19.3332L9.99996 12.6665ZM19.6666 11.6665C19.2984 11.6665 19 11.965 19 12.3332C19 12.7014 19.2984 12.9998 19.6666 12.9998L19.6733 12.9998C20.0415 12.9998 20.34 12.7014 20.34 12.3332C20.34 11.965 20.0415 11.6665 19.6733 11.6665L19.6666 11.6665ZM16.5177 12.6737C15.8242 12.5709 15.1159 12.6893 14.4935 13.0122C13.8712 13.3352 13.3665 13.8461 13.0513 14.4724C12.7361 15.0986 12.6264 15.8083 12.7378 16.5006C12.8492 17.1928 13.176 17.8322 13.6717 18.328C14.1675 18.8238 14.807 19.1506 15.4992 19.262C16.1914 19.3734 16.9011 19.2637 17.5274 18.9484C18.1537 18.6332 18.6646 18.1286 18.9875 17.5062C19.3104 16.8839 19.4289 16.1756 19.326 15.482C19.2211 14.7746 18.8915 14.1197 18.3858 13.614C17.8801 13.1083 17.2252 12.7786 16.5177 12.6737ZM15.1076 14.1957C15.481 14.002 15.906 13.9309 16.3221 13.9926C16.7466 14.0556 17.1396 14.2534 17.443 14.5568C17.7464 14.8602 17.9442 15.2532 18.0071 15.6776C18.0688 16.0937 17.9978 16.5187 17.804 16.8921C17.6103 17.2655 17.3037 17.5683 16.9279 17.7575C16.5522 17.9466 16.1264 18.0124 15.711 17.9456C15.2957 17.8788 14.912 17.6827 14.6146 17.3852C14.3171 17.0877 14.121 16.7041 14.0542 16.2887C13.9873 15.8734 14.0532 15.4476 14.2423 15.0718C14.4314 14.6961 14.7342 14.3895 15.1076 14.1957Z" fill="rgb(41,47,54)" fill-rule="evenodd" />
		</g>
	</g>
</svg>
