<svg viewBox="0 0 142 10" xmlns="http://www.w3.org/2000/svg" xmlns:xlink="http://www.w3.org/1999/xlink" width="142.000000" height="10.000000" fill="none" customFrame="#000000">
	<path id="Line 22" d="M5 4L137 4L137 6L5 6L5 4ZM10 5C10 6.38071 9.51184 7.55922 8.53553 8.53553C7.55922 9.51184 6.38071 10 5 10C3.61929 10 2.44078 9.51184 1.46447 8.53553C0.488155 7.55922 0 6.38071 0 5C0 3.61929 0.488155 2.44078 1.46447 1.46447C2.44078 0.488155 3.61929 0 5 0C6.38071 0 7.55922 0.488155 8.53553 1.46447C9.51184 2.44078 10 3.61929 10 5ZM142 5C142 6.38071 141.512 7.55922 140.536 8.53553C139.559 9.51184 138.381 10 137 10C135.619 10 134.441 9.51184 133.464 8.53553C132.488 7.55922 132 6.38071 132 5C132 3.61929 132.488 2.44078 133.464 1.46447C134.441 0.488155 135.619 0 137 0C138.381 0 139.559 0.488155 140.536 1.46447C141.512 2.44078 142 3.61929 142 5Z" fill="rgb(18,247,214)" fill-rule="nonzero" />
</svg>
