<svg viewBox="0 0 24 24" xmlns="http://www.w3.org/2000/svg" xmlns:xlink="http://www.w3.org/1999/xlink" width="24.000000" height="24.000000" fill="none" customFrame="#000000">
	<defs>
		<clipPath id="clipPath_4">
			<rect width="24.000000" height="24.000000" x="0.000000" y="0.000000" fill="rgb(255,255,255)" />
		</clipPath>
	</defs>
	<rect id="icon-edit" width="24.000000" height="24.000000" x="0.000000" y="0.000000" fill="rgb(255,255,255)" fill-opacity="0" />
	<g id="icon-edit" clip-path="url(#clipPath_4)" customFrame="url(#clipPath_4)">
		<rect id="icon-edit" width="24.000000" height="24.000000" x="0.000000" y="0.000000" />
		<path id="Shape" d="M20 0.878662C19.1722 0.878662 18.3783 1.20751 17.7929 1.79288L8.29289 11.2929C8.16473 11.421 8.07382 11.5816 8.02986 11.7574L7.02986 15.7574C6.94466 16.0982 7.04451 16.4587 7.29289 16.7071C7.54127 16.9555 7.90176 17.0553 8.24254 16.9701L12.2425 15.9701C12.4184 15.9262 12.5789 15.8352 12.7071 15.7071L22.2071 6.20709C22.7925 5.62173 23.1213 4.82781 23.1213 3.99998C23.1213 3.17216 22.7925 2.37824 22.2071 1.79288C21.6217 1.20751 20.8278 0.878662 20 0.878662ZM19.2071 3.20709C19.4174 2.9968 19.7026 2.87866 20 2.87866C20.2974 2.87866 20.5826 2.9968 20.7929 3.20709C21.0032 3.41738 21.1213 3.70259 21.1213 3.99998C21.1213 4.29737 21.0032 4.58259 20.7929 4.79288L11.4888 14.097L9.37437 14.6256L9.90296 12.5112L19.2071 3.20709ZM1.87868 3.87868C2.44129 3.31607 3.20435 3 4 3L11 3C11.5523 3 12 3.44772 12 4C12 4.55228 11.5523 5 11 5L4 5C3.73478 5 3.48043 5.10536 3.29289 5.29289C3.10536 5.48043 3 5.73478 3 6L3 20C3 20.2652 3.10536 20.5196 3.29289 20.7071C3.48043 20.8946 3.73478 21 4 21L18 21C18.2652 21 18.5196 20.8946 18.7071 20.7071C18.8946 20.5196 19 20.2652 19 20L19 13C19 12.4477 19.4477 12 20 12C20.5523 12 21 12.4477 21 13L21 20C21 20.7957 20.6839 21.5587 20.1213 22.1213C19.5587 22.6839 18.7957 23 18 23L4 23C3.20435 23 2.44129 22.6839 1.87868 22.1213C1.31607 21.5587 1 20.7957 1 20L1 6C1 5.20435 1.31607 4.44129 1.87868 3.87868Z" fill="rgb(255,255,255)" fill-rule="evenodd" />
	</g>
</svg>
