<svg viewBox="0 0 24 24" xmlns="http://www.w3.org/2000/svg" xmlns:xlink="http://www.w3.org/1999/xlink" width="24.000000" height="24.000000" fill="none" customFrame="#000000">
	<defs>
		<clipPath id="clipPath_0">
			<rect width="24.000000" height="24.000000" x="0.000000" y="0.000000" fill="rgb(255,255,255)" />
		</clipPath>
	</defs>
	<rect id="icon-grid" width="24.000000" height="24.000000" x="0.000000" y="0.000000" fill="rgb(255,255,255)" fill-opacity="0" />
	<g id="icon-grid" clip-path="url(#clipPath_0)" customFrame="url(#clipPath_0)">
		<rect id="icon-grid" width="24.000000" height="24.000000" x="0.000000" y="0.000000" />
		<path id="Shape" d="M3 2C2.44772 2 2 2.44772 2 3L2 10C2 10.5523 2.44772 11 3 11L10 11C10.5523 11 11 10.5523 11 10L11 3C11 2.44772 10.5523 2 10 2L3 2ZM13 3C13 2.44772 13.4477 2 14 2L21 2C21.5523 2 22 2.44772 22 3L22 10C22 10.5523 21.5523 11 21 11L14 11C13.4477 11 13 10.5523 13 10L13 3ZM4 9L4 4L9 4L9 9L4 9ZM15 4L15 9L20 9L20 4L15 4ZM2 14C2 13.4477 2.44772 13 3 13L10 13C10.5523 13 11 13.4477 11 14L11 21C11 21.5523 10.5523 22 10 22L3 22C2.44772 22 2 21.5523 2 21L2 14ZM13 14C13 13.4477 13.4477 13 14 13L21 13C21.5523 13 22 13.4477 22 14L22 21C22 21.5523 21.5523 22 21 22L14 22C13.4477 22 13 21.5523 13 21L13 14ZM4 15L4 20L9 20L9 15L4 15ZM15 15L15 20L20 20L20 15L15 15Z" fill="rgb(41,47,54)" fill-rule="evenodd" />
	</g>
</svg>
